Coordinates
version=1
nRows=29
nColumns=24
inDegrees=yes

Units are S.I. units (second, meters, Newtons, ...)
Angles are in degrees.

endheader
time	pelvis_tilt	pelvis_list	pelvis_rotation	pelvis_tx	pelvis_ty	pelvis_tz	hip_flexion_r	hip_adduction_r	hip_rotation_r	knee_angle_r	ankle_angle_r	subtalar_angle_r	mtp_angle_r	hip_flexion_l	hip_adduction_l	hip_rotation_l	knee_angle_l	ankle_angle_l	subtalar_angle_l	mtp_angle_l	lumbar_extension	lumbar_bending	lumbar_rotation
      0.45800000	     -9.40787794	     -0.55615815	     -0.95638894	     -0.70833336	      1.03568542	      0.30052744	     35.09397023	      1.31898533	     -4.47805825	    -16.13404403	     10.17946810	      0.19716224	      7.24180398	     -3.98234493	     -0.87336366	     -2.61471112	    -11.49305024	     21.13122974	      8.54344867	      6.37088173	     -3.01801157	      1.15370569	     -2.76664268
      0.46216667	     -9.38037084	     -0.51183896	     -0.87343938	     -0.70232615	      1.03448533	      0.30081871	     35.08932895	      1.28540963	     -4.13970688	    -16.01207357	     10.04859697	     -0.04273551	      7.22742010	     -4.07233324	     -0.88421949	     -2.62591460	    -12.12980301	     21.30641526	      8.77476210	      6.42527958	     -3.01492417	      1.14554945	     -2.78657706
      0.46633333	     -9.33957900	     -0.47649204	     -0.79114273	     -0.69629520	      1.03331688	      0.30110210	     35.08468689	      1.25728926	     -3.83184224	    -16.01954686	      9.91884650	     -0.25836683	      7.21383975	     -4.13268268	     -0.91401999	     -2.69049748	    -12.86591780	     21.50391081	      9.10430216	      6.52707147	     -3.02717282	      1.15720609	     -2.79261864
      0.47050000	     -9.25863784	     -0.45500658	     -0.70891890	     -0.69022712	      1.03225329	      0.30138334	     35.04051312	      1.24221582	     -3.54205481	    -16.13300800	      9.77494283	     -0.50410906	      7.20209003	     -4.21467362	     -0.96373560	     -2.76243310	    -13.64713626	     21.67079913	      9.45117516	      6.66759953	     -3.08591630	      1.18758758	     -2.79627072
      0.47466667	     -9.19967665	     -0.43879619	     -0.62432828	     -0.68411310	      1.03117644	      0.30166644	     35.03125333	      1.23092941	     -3.28700644	    -16.36559456	      9.61535097	     -0.75294324	      7.19094255	     -4.23513859	     -1.02642267	     -2.84722607	    -14.51343679	     21.81696726	      9.80334832	      6.85554753	     -3.10332777	      1.22810962	     -2.79497456
      0.47883333	     -9.08985368	     -0.44038606	     -0.54507438	     -0.67797301	      1.03021552	      0.30195162	     34.97121921	      1.23945002	     -3.04872757	    -16.69302590	      9.43256033	     -1.02860888	      7.18024306	     -4.28487988	     -1.11472778	     -2.95936912	    -15.43622949	     21.93742771	     10.19551620	      7.09919480	     -3.18833739	      1.29614683	     -2.79094984
      0.48300000	     -8.97584567	     -0.45158049	     -0.46484739	     -0.67179565	      1.02929613	      0.30224715	     34.91346298	      1.25735240	     -2.84189760	    -17.11877308	      9.23390745	     -1.30809064	      7.16959169	     -4.30566463	     -1.22196727	     -3.08489812	    -16.42830431	     22.02376568	     10.60072965	      7.41012077	     -3.26832874	      1.38234656	     -2.78160873
      0.48716667	     -8.86564019	     -0.46417131	     -0.38701871	     -0.66559443	      1.02839447	      0.30255940	     34.86791788	      1.27962608	     -2.65098483	    -17.63454615	      9.02110221	     -1.60424925	      7.15838239	     -4.28844901	     -1.33859871	     -3.22080071	    -17.49112463	     22.06996994	     11.01796876	      7.78266201	     -3.33837264	      1.46911073	     -2.76818545
      0.49133333	     -8.72284081	     -0.49083449	     -0.31047923	     -0.65936426	      1.02757950	      0.30287514	     34.79128529	      1.31530549	     -2.49383851	    -18.22706754	      8.79978196	     -1.89406835	      7.14489688	     -4.27483427	     -1.47954713	     -3.38141929	    -18.61839087	     22.07502980	     11.45449672	      8.22286789	     -3.44445473	      1.57615444	     -2.74711036
      0.49550000	     -8.59334753	     -0.51212730	     -0.23512247	     -0.65311972	      1.02676029	      0.30321568	     34.73790184	      1.34834898	     -2.35085612	    -18.89623999	      8.57639176	     -2.18283105	      7.12775491	     -4.21160881	     -1.62226430	     -3.53559211	    -19.81578880	     22.02448172	     11.88068406	      8.71910620	     -3.52643366	      1.68230898	     -2.72530303
      0.49966667	     -8.41560204	     -0.53213311	     -0.16218488	     -0.64686926	      1.02606709	      0.30355566	     34.64618524	      1.37644467	     -2.25827385	    -19.64753761	      8.39037086	     -2.41440751	      6.99060146	     -4.18060335	     -1.76289688	     -3.65014957	    -21.03134148	     21.80370618	     12.18665623	     13.19800532	     -3.67644386	      1.77486236	     -2.65915004
      0.50383333	     -8.24205417	     -0.58141037	     -0.08453672	     -0.64059541	      1.02540623	      0.30391915	     34.54026275	      1.43760273	     -2.15918870	    -20.39997546	      8.13382172	     -2.72506318	      6.97711879	     -4.09428419	     -1.95317294	     -3.81166563	    -22.35928519	     21.65730502	     12.59557682	     13.29030996	     -3.80798013	      1.92087470	     -2.67128566
      0.50800000	     -8.06598382	     -0.62927348	     -0.01582750	     -0.63431225	      1.02476665	      0.30431238	     34.44175684	      1.50106395	     -2.08319113	    -21.21112851	      7.92183850	     -2.99804552	      6.95686643	     -3.97531538	     -2.15350686	     -4.00145588	    -23.75479186	     21.44359502	     13.03806304	     13.46294351	     -3.93891153	      2.05852762	     -2.63176717
      0.51216667	     -7.87367706	     -0.67491274	      0.04580747	     -0.62803394	      1.02419690	      0.30474962	     34.32368433	      1.57256199	     -1.99202475	    -22.04624647	      7.72870898	     -3.31480031	      6.67608465	     -3.84670133	     -2.35795711	     -4.17829716	    -25.18391181	     21.08375558	     13.39639326	     16.19921506	     -4.09679656	      2.19120067	     -2.56562997
      0.51633333	     -7.67509144	     -0.74301717	      0.12007355	     -0.62174331	      1.02366560	      0.30515778	     34.19611725	      1.64817673	     -1.98832791	    -22.90116935	      7.55883098	     -3.49869904	      6.66097965	     -3.67744631	     -2.60026750	     -4.36813284	    -26.70731630	     20.73633591	     13.81157442	     16.29023338	     -4.24845711	      2.35900115	     -2.54952822
      0.52050000	     -7.47697208	     -0.81152753	      0.18198179	     -0.61546138	      1.02317430	      0.30562052	     34.06112648	      1.74048036	     -1.94567468	    -23.75811112	      7.40478188	     -3.75634818	      6.63212143	     -3.47832473	     -2.85183606	     -4.56306166	    -28.27418829	     20.30412708	     14.19508301	     16.46537622	     -4.40267802	      2.52578735	     -2.50256803
      0.52466667	     -7.28498124	     -0.87227436	      0.24557379	     -0.60920808	      1.02269876	      0.30610164	     33.93010749	      1.82682343	     -1.90754445	    -24.62198371	      7.29695807	     -4.02072060	      6.17823520	     -3.23867902	     -3.09888875	     -4.72215643	    -29.88497028	     19.73744511	     14.47350251	     19.42901837	     -4.55128002	      2.67663536	     -2.42353389
      0.52883333	     -7.07548526	     -0.94598747	      0.30839629	     -0.60294665	      1.02229544	      0.30657849	     33.76950869	      1.91991159	     -1.91619534	    -25.47742159	      7.24678321	     -4.15367911	      6.16477972	     -2.98553534	     -3.36983245	     -4.89490528	    -31.54882012	     19.14016984	     14.78085446	     19.49835306	     -4.71548663	      2.85023968	     -2.39913584
      0.53300000	     -6.87449532	     -1.03202249	      0.36800702	     -0.59671072	      1.02191573	      0.30708174	     33.60155764	      2.03351006	     -1.90917241	    -26.30579298	      7.21458615	     -4.34776201	      6.13650657	     -2.69073655	     -3.66026489	     -5.05114886	    -33.26287379	     18.49768769	     15.04334962	     19.63137571	     -4.87116276	      3.03739644	     -2.34375607
      0.53716667	     -6.70247157	     -1.11125873	      0.43003301	     -0.59049001	      1.02153032	      0.30758902	     33.45306961	      2.13914337	     -1.91384554	    -27.11844424	      7.23463434	     -4.51224457	      6.09454294	     -2.33187388	     -3.94678321	     -5.18539663	    -35.01343852	     17.77323920	     15.24273587	     19.82361615	     -4.98860687	      3.21628154	     -2.28793977
      0.54133333	     -6.50169221	     -1.18979783	      0.49604455	     -0.58430989	      1.02125520	      0.30807919	     33.25311870	      2.24335267	     -1.91766060	    -27.89473164	      7.33496503	     -4.63838914	      6.06303964	     -1.98323089	     -4.22128119	     -5.24908400	    -36.77125039	     16.93685925	     15.33067381	     19.96331681	     -5.15791727	      3.39966887	     -2.22861472
      0.54550000	     -6.31143752	     -1.28412083	      0.55140102	     -0.57815030	      1.02098707	      0.30860928	     33.05189736	      2.36963502	     -1.94246568	    -28.64883946	      7.45071361	     -4.78119728	      5.11238306	     -1.59178410	     -4.53408392	     -5.37049091	    -38.56753614	     16.06574220	     15.38554816	     23.68104752	     -5.29938234	      3.58696827	     -2.16033125
      0.54966667	     -6.13300882	     -1.37511948	      0.60893746	     -0.57202285	      1.02076085	      0.30911095	     32.83960067	      2.48986559	     -1.96663660	    -29.35603353	      7.64736052	     -4.86627403	      5.11067845	     -1.16803666	     -4.82577359	     -5.41704353	    -40.37807042	     15.18098174	     15.35176100	     23.68526748	     -5.43666852	      3.78056213	     -2.09811849
      0.55383333	     -5.97535850	     -1.47129570	      0.66743914	     -0.56592487	      1.02054471	      0.30961700	     32.62925418	      2.61425698	     -2.00459982	    -30.02451524	      7.87443135	     -4.94495154	      5.10149665	     -0.69512478	     -5.12833674	     -5.46335960	    -42.20964811	     14.28159595	     15.29510871	     23.69851309	     -5.54628106	      3.97585223	     -2.03072828
      0.55800000	     -5.79889039	     -1.56188469	      0.72115278	     -0.55987886	      1.02041132	      0.31011167	     32.38317913	      2.73358288	     -2.05419884	    -30.66116738	      8.15074943	     -5.03327837	      5.09412989	     -0.22339342	     -5.42170986	     -5.50229271	    -44.04059176	     13.36243805	     15.17369994	     23.70304931	     -5.68122757	      4.17052899	     -1.96307727
      0.56216667	     -5.67428920	     -1.68543311	      0.78643554	     -0.55383699	      1.02027749	      0.31058806	     32.15093855	      2.88263035	     -2.10406683	    -31.21545862	      8.45445751	     -5.06467571	      5.07484607	      0.32557048	     -5.74172511	     -5.48441682	    -45.87780313	     12.45104833	     14.97731804	     23.70867053	     -5.75477419	      4.39345914	     -1.88250308
      0.56633333	     -5.54676666	     -1.79329674	      0.84475081	     -0.54784646	      1.02018753	      0.31106525	     31.90377485	      3.01709334	     -2.16113916	    -31.74679087	      8.80686207	     -5.09707188	      5.05232326	      0.88354431	     -6.03795691	     -5.45710701	    -47.69994762	     11.56899593	     14.71443143	     23.70048585	     -5.83321563	      4.60115445	     -1.80484873
      0.57050000	     -5.42239513	     -1.90525796	      0.90883788	     -0.54190147	      1.02018318	      0.31150604	     31.63109823	      3.15116159	     -2.22663442	    -32.21682960	      9.19061265	     -5.11796616	      5.02891110	      1.46197298	     -6.32864751	     -5.40678092	    -49.50523435	     10.70516595	     14.38182622	     23.67553527	     -5.91274425	      4.81518401	     -1.72414740
      0.57466667	     -5.34669632	     -2.00963646	      0.97210862	     -0.53598101	      1.02015484	      0.31190776	     31.40154428	      3.26502490	     -2.33241018	    -32.67006541	      9.57515915	     -5.06421945	      4.97020623	      2.10469169	     -6.59171008	     -5.32392207	    -51.28998537	      9.89910146	     13.89699851	     23.60396901	     -5.92704481	      5.02485186	     -1.64506511
